<svg xmlns="http://www.w3.org/2000/svg" xmlns:ev="http://www.w3.org/2001/xml-events" xmlns:xlink="http://www.w3.org/1999/xlink" baseProfile="full" height="100%" version="1.1" width="100%" viewBox="0 0 757.6 374.3"><defs><style type="text/css">
    .background {fill:white;}
    .default {fill:grey;}
    .diff {fill:rgb(196,157,113);}
    .tap {fill:rgb(121,196,113);}
    .poly {fill:rgb(212,90,92);}
    .mcon {fill:rgb(204,202,204);stroke-width:1;stroke:black;}
    .met1 {fill:rgb(190,144,217);}
    .huge_met1 {fill:rgb(160,114,187);}
    .via {fill:rgb(59,0,246);}
    .checkmark {fill:rgb(0,192,0);font-size:74px;}
    .no {fill:rgb(179,0,0);font-size:74px;}
    
</style></defs><rect class="huge_met1" height="310.8" width="310.8" x="0" y="0"/><rect class="met1" height="46.620000000000005" width="124.32000000000001" x="310.8" y="0"/><rect class="met1" height="46.620000000000005" width="124.32000000000001" x="310.8" y="108.78"/><rect class="met1" height="54.620000000000005" width="62.160000000000004" x="372.96000000000004" y="0"/><line stroke="black" stroke-width="1" style="stroke-dasharray:8,8;" x1="372.96000000000004" x2="372.96000000000004" y1="0" y2="155.4"/><line stroke="black" stroke-width="1" x1="364.96000000000004" x2="364.96000000000004" y1="46.620000000000005" y2="108.78"/><line stroke="black" stroke-width="1" x1="364.96000000000004" x2="368.90208066888545" y1="108.78" y2="101.95231628149048"/><line stroke="black" stroke-width="1" x1="364.96000000000004" x2="361.0179193311146" y1="108.78" y2="101.95231628149048"/><line stroke="black" stroke-width="1" x1="364.96000000000004" x2="364.96000000000004" y1="108.78" y2="46.620000000000005"/><line stroke="black" stroke-width="1" x1="364.96000000000004" x2="361.0179193311146" y1="46.620000000000005" y2="53.44768371850952"/><line stroke="black" stroke-width="1" x1="364.96000000000004" x2="368.90208066888545" y1="46.620000000000005" y2="53.44768371850952"/><text x="380.96000000000004" y="73.12">space &gt;= 0.280&#181;m</text><text x="380.96000000000004" y="91.62">(m1.3a)</text><rect class="huge_met1" height="25.9" style="fill-opacity:1.0;" width="25.9" x="0" y="321.90000000000003"/><text x="33.9" y="347.8">huge_met1</text><rect class="met1" height="12.95" style="fill-opacity:1.0;" width="12.95" x="0" y="353.35"/><text x="20.95" y="366.3">met1</text></svg>