<svg xmlns="http://www.w3.org/2000/svg" xmlns:ev="http://www.w3.org/2001/xml-events" xmlns:xlink="http://www.w3.org/1999/xlink" baseProfile="full" height="100%" version="1.1" width="100%" viewBox="0 0 376.75 409.75"><defs><style type="text/css">
    .background {fill:white;}
    .mcon {fill:rgb(204,202,204);stroke-width:1;stroke:black;}
    .met1 {fill:rgb(190,144,217.25);}
    .huge_met1 {fill:rgb(190,144,217.25);}
    .via {fill:rgb(59,0,246);}
    
</style></defs><rect class="met1" height="335.25" width="223.5" x="0" y="0"/><rect class="mcon" height="111.75" width="111.75" x="55.875" y="111.75"/><line stroke="black" x1="0" x2="0" y1="335.25" y2="372.5"/><line stroke="black" x1="55.875" x2="55.875" y1="335.25" y2="372.5"/><line stroke="black" stroke-width="1" x1="0" x2="55.875" y1="353.875" y2="353.875"/><line stroke="black" stroke-width="1" x1="55.875" x2="49.40168620411462" y1="353.875" y2="350.1375209030685"/><line stroke="black" stroke-width="1" x1="55.875" x2="49.40168620411462" y1="353.875" y2="357.6124790969315"/><line stroke="black" stroke-width="1" x1="55.875" x2="0" y1="353.875" y2="353.875"/><line stroke="black" stroke-width="1" x1="0" x2="6.473313795885382" y1="353.875" y2="357.6124790969315"/><line stroke="black" stroke-width="1" x1="0" x2="6.473313795885382" y1="353.875" y2="350.1375209030685"/><text x="0" y="391.125">space &gt;= 0.030&#181;m</text><text x="0" y="409.75">(m1.4)</text><line stroke="black" x1="223.5" x2="260.75" y1="0" y2="0"/><line stroke="black" x1="223.5" x2="260.75" y1="111.75" y2="111.75"/><line stroke="black" stroke-width="1" x1="242.125" x2="242.125" y1="0" y2="111.75"/><line stroke="black" stroke-width="1" x1="242.125" x2="247.4105936279665" y1="111.75" y2="102.59535183636203"/><line stroke="black" stroke-width="1" x1="242.125" x2="236.8394063720335" y1="111.75" y2="102.59535183636203"/><line stroke="black" stroke-width="1" x1="242.125" x2="242.125" y1="111.75" y2="0"/><line stroke="black" stroke-width="1" x1="242.125" x2="236.8394063720335" y1="0" y2="9.154648163637967"/><line stroke="black" stroke-width="1" x1="242.125" x2="247.4105936279665" y1="0" y2="9.154648163637967"/><text x="260.75" y="23.625">space &gt;= 0.060&#181;m</text><text x="260.75" y="42.25">(m1.5)</text></svg>