<svg xmlns="http://www.w3.org/2000/svg" xmlns:ev="http://www.w3.org/2001/xml-events" xmlns:xlink="http://www.w3.org/1999/xlink" baseProfile="full" height="100%" version="1.1" width="100%" viewBox="0 0 287.7 289.79999999999995"><defs><style type="text/css">
    .background {fill:white;}
    .default {fill:grey;}
    .diff {fill:rgb(196,157,113);}
    .tap {fill:rgb(121,196,113);}
    .poly {fill:rgb(212,90,92);}
    .mcon {fill:rgb(204,202,204);stroke-width:1;stroke:black;}
    .met1 {fill:rgb(190,144,217);}
    .huge_met1 {fill:rgb(160,114,187);}
    .via {fill:rgb(59,0,246);}
    .checkmark {fill:rgb(0,192,0);font-size:74px;}
    .no {fill:rgb(179,0,0);font-size:74px;}
    
</style></defs><rect class="met1" height="199.79999999999998" width="133.2" x="0" y="0"/><rect class="mcon" height="66.6" width="66.6" x="33.3" y="66.6"/><line stroke="black" stroke-width="1" style="stroke-dasharray:8,8;" x1="0" x2="0" y1="133.2" y2="199.79999999999998"/><line stroke="black" stroke-width="1" style="stroke-dasharray:8,8;" x1="33.3" x2="33.3" y1="133.2" y2="199.79999999999998"/><line stroke="black" stroke-width="1" x1="0" x2="33.3" y1="207.79999999999998" y2="207.79999999999998"/><line stroke="black" stroke-width="1" x1="33.3" x2="28.302647220777782" y1="207.79999999999998" y2="204.91469239074928"/><line stroke="black" stroke-width="1" x1="33.3" x2="28.302647220777782" y1="207.79999999999998" y2="210.68530760925069"/><line stroke="black" stroke-width="1" x1="33.3" x2="0" y1="207.79999999999998" y2="207.79999999999998"/><line stroke="black" stroke-width="1" x1="0" x2="4.997352779222215" y1="207.79999999999998" y2="210.68530760925069"/><line stroke="black" stroke-width="1" x1="0" x2="4.997352779222215" y1="207.79999999999998" y2="204.91469239074928"/><text x="0" y="226.29999999999998">space &gt;= 0.030&#181;m</text><text x="0" y="244.79999999999998">(m1.4)</text><line stroke="black" stroke-width="1" style="stroke-dasharray:8,8;" x1="99.89999999999999" x2="133.2" y1="0" y2="0"/><line stroke="black" stroke-width="1" style="stroke-dasharray:8,8;" x1="99.89999999999999" x2="133.2" y1="66.6" y2="66.6"/><line stroke="black" stroke-width="1" x1="141.2" x2="141.2" y1="0" y2="66.6"/><line stroke="black" stroke-width="1" x1="141.2" x2="145.28044115262063" y1="66.6" y2="59.53267592366106"/><line stroke="black" stroke-width="1" x1="141.2" x2="137.11955884737935" y1="66.6" y2="59.53267592366106"/><line stroke="black" stroke-width="1" x1="141.2" x2="141.2" y1="66.6" y2="0"/><line stroke="black" stroke-width="1" x1="141.2" x2="137.11955884737935" y1="0" y2="7.067324076338936"/><line stroke="black" stroke-width="1" x1="141.2" x2="145.28044115262063" y1="0" y2="7.067324076338936"/><text x="159.7" y="18.5">space &gt;= 0.060&#181;m</text><text x="159.7" y="37.0">(m1.5)</text><rect class="met1" height="12.95" style="fill-opacity:1.0;" width="12.95" x="0" y="250.34999999999997"/><text x="20.95" y="263.29999999999995">met1</text><rect class="mcon" height="12.95" style="fill-opacity:1.0;" width="12.95" x="0" y="268.84999999999997"/><text x="20.95" y="281.79999999999995">mcon</text></svg>