<svg xmlns="http://www.w3.org/2000/svg" xmlns:ev="http://www.w3.org/2001/xml-events" xmlns:xlink="http://www.w3.org/1999/xlink" baseProfile="full" height="100%" version="1.1" width="100%" viewBox="0 0 403.90000000000003 467.40000000000003"><defs><style type="text/css">
    .background {fill:white;}
    .default {fill:grey;}
    .diff {fill:rgb(196,157,113);}
    .tap {fill:rgb(121,196,113);}
    .poly {fill:rgb(212,90,92);}
    .mcon {fill:rgb(204,202,204);stroke-width:1;stroke:black;}
    .met1 {fill:rgb(190,144,217);}
    .huge_met1 {fill:rgb(160,114,187);}
    .via {fill:rgb(59,0,246);}
    .checkmark {fill:rgb(0,192,0);font-size:74px;}
    .no {fill:rgb(179,0,0);font-size:74px;}
    
</style></defs><rect class="met1" height="377.40000000000003" width="377.40000000000003" x="0" y="0"/><rect class="via" height="188.70000000000002" width="188.70000000000002" x="94.35000000000001" y="94.35000000000001"/><line stroke="black" stroke-width="1" style="stroke-dasharray:8,8;" x1="0" x2="0" y1="283.05" y2="377.40000000000003"/><line stroke="black" stroke-width="1" style="stroke-dasharray:8,8;" x1="94.35000000000001" x2="94.35000000000001" y1="283.05" y2="377.40000000000003"/><line stroke="black" stroke-width="1" x1="0" x2="94.35000000000001" y1="385.40000000000003" y2="385.40000000000003"/><line stroke="black" stroke-width="1" x1="94.35000000000001" x2="85.93820182125131" y1="385.40000000000003" y2="380.5433035919465"/><line stroke="black" stroke-width="1" x1="94.35000000000001" x2="85.93820182125131" y1="385.40000000000003" y2="390.2566964080536"/><line stroke="black" stroke-width="1" x1="94.35000000000001" x2="0" y1="385.40000000000003" y2="385.40000000000003"/><line stroke="black" stroke-width="1" x1="0" x2="8.411798178748704" y1="385.40000000000003" y2="390.2566964080536"/><line stroke="black" stroke-width="1" x1="0" x2="8.411798178748704" y1="385.40000000000003" y2="380.5433035919465"/><text x="0" y="403.90000000000003">space &gt;= 0.085&#181;m</text><text x="0" y="422.40000000000003">(via.5a)</text><line stroke="black" stroke-width="1" style="stroke-dasharray:8,8;" x1="283.05" x2="377.40000000000003" y1="0" y2="0"/><line stroke="black" stroke-width="1" style="stroke-dasharray:8,8;" x1="283.05" x2="377.40000000000003" y1="94.35000000000001" y2="94.35000000000001"/><line stroke="black" stroke-width="1" x1="385.40000000000003" x2="385.40000000000003" y1="0" y2="94.35000000000001"/><line stroke="black" stroke-width="1" x1="385.40000000000003" x2="390.2566964080536" y1="94.35000000000001" y2="85.93820182125131"/><line stroke="black" stroke-width="1" x1="385.40000000000003" x2="380.5433035919465" y1="94.35000000000001" y2="85.93820182125131"/><line stroke="black" stroke-width="1" x1="385.40000000000003" x2="385.40000000000003" y1="94.35000000000001" y2="0"/><line stroke="black" stroke-width="1" x1="385.40000000000003" x2="380.5433035919465" y1="0" y2="8.411798178748704"/><line stroke="black" stroke-width="1" x1="385.40000000000003" x2="390.2566964080536" y1="0" y2="8.411798178748704"/><rect class="met1" height="12.95" style="fill-opacity:1.0;" width="12.95" x="0" y="427.95000000000005"/><text x="20.95" y="440.90000000000003">met1</text><rect class="via" height="12.95" style="fill-opacity:1.0;" width="12.95" x="0" y="446.45000000000005"/><text x="20.95" y="459.40000000000003">via</text></svg>