<svg xmlns="http://www.w3.org/2000/svg" xmlns:ev="http://www.w3.org/2001/xml-events" xmlns:xlink="http://www.w3.org/1999/xlink" baseProfile="full" height="100%" version="1.1" width="100%" viewBox="0 0 560.0 634.0"><defs><style type="text/css">
    .background {fill:white;}
    .default {fill:grey;}
    .diff {fill:rgb(196,157,113);}
    .tap {fill:rgb(121,196,113);}
    .poly {fill:rgb(212,90,92);}
    .mcon {fill:rgb(204,202,204);stroke-width:1;stroke:black;}
    .met1, .huge_met1 {fill:rgb(190,144,217);}
    .via {fill:rgb(59,0,246);}
    .checkmark {fill:rgb(0,192,0);font-size:74px;}
    .no {fill:rgb(179,0,0);font-size:74px;}
    
</style></defs><rect class="met1" height="518.0" width="407.0" x="0" y="0"/><rect class="via" height="203.5" width="203.5" x="101.75" y="157.25"/><line stroke="black" x1="0" x2="0" y1="518.0" y2="555.0"/><line stroke="black" x1="101.75" x2="101.75" y1="518.0" y2="555.0"/><line stroke="black" stroke-width="1" x1="0" x2="101.75" y1="536.5" y2="536.5"/><line stroke="black" stroke-width="1" x1="101.75" x2="93.01455364620674" y1="536.5" y2="531.456439749542"/><line stroke="black" stroke-width="1" x1="101.75" x2="93.01455364620674" y1="536.5" y2="541.543560250458"/><line stroke="black" stroke-width="1" x1="101.75" x2="0" y1="536.5" y2="536.5"/><line stroke="black" stroke-width="1" x1="0" x2="8.735446353793263" y1="536.5" y2="541.543560250458"/><line stroke="black" stroke-width="1" x1="0" x2="8.735446353793263" y1="536.5" y2="531.456439749542"/><text x="0" y="573.5">space &gt;= 0.055&#181;m</text><text x="0" y="592.0">(via.4a)</text><line stroke="black" x1="407.0" x2="444.0" y1="0" y2="0"/><line stroke="black" x1="407.0" x2="444.0" y1="157.25" y2="157.25"/><line stroke="black" stroke-width="1" x1="425.5" x2="425.5" y1="0" y2="157.25"/><line stroke="black" stroke-width="1" x1="425.5" x2="431.7699681019922" y1="157.25" y2="146.39041524734947"/><line stroke="black" stroke-width="1" x1="425.5" x2="419.2300318980078" y1="157.25" y2="146.39041524734947"/><line stroke="black" stroke-width="1" x1="425.5" x2="425.5" y1="157.25" y2="0"/><line stroke="black" stroke-width="1" x1="425.5" x2="419.2300318980078" y1="0" y2="10.859584752650536"/><line stroke="black" stroke-width="1" x1="425.5" x2="431.7699681019922" y1="0" y2="10.859584752650536"/><text x="444.0" y="23.5">space &gt;= 0.085&#181;m</text><text x="444.0" y="42">(via.5a)</text><rect class="met1" height="12.95" width="12.95" x="0" y="597.55"/><text x="17.95" y="610.5">met1</text><rect class="via" height="12.95" width="12.95" x="0" y="616.05"/><text x="17.95" y="629.0">via</text></svg>