<svg xmlns="http://www.w3.org/2000/svg" xmlns:ev="http://www.w3.org/2001/xml-events" xmlns:xlink="http://www.w3.org/1999/xlink" baseProfile="full" height="100%" version="1.1" width="100%" viewBox="0 0 437.9375 195.5625"><defs><style type="text/css">
    .background {fill:white;}
    .mcon {fill:rgb(204,202,204);stroke-width:1;stroke:black;}
    .met1 {fill:rgb(190,144,217.25);}
    .huge_met1 {fill:rgb(190,144,217.25);}
    .via {fill:rgb(59,0,246);}
    
</style></defs><rect class="via" height="139.6875" width="139.6875" x="0" y="0"/><line stroke="black" stroke-width="1" x1="0" x2="139.6875" y1="158.3125" y2="158.3125"/><line stroke="black" stroke-width="1" x1="139.6875" x2="129.45229219800595" y1="158.3125" y2="152.4030266732136"/><line stroke="black" stroke-width="1" x1="139.6875" x2="129.45229219800595" y1="158.3125" y2="164.2219733267864"/><line stroke="black" stroke-width="1" x1="139.6875" x2="0" y1="158.3125" y2="158.3125"/><line stroke="black" stroke-width="1" x1="0" x2="10.235207801994056" y1="158.3125" y2="164.2219733267864"/><line stroke="black" stroke-width="1" x1="0" x2="10.235207801994056" y1="158.3125" y2="152.4030266732136"/><text x="0" y="176.9375">width &gt;= 0.150&#181;m, width &lt;= 0.150&#181;m</text><text x="0" y="195.5625">(via.1a)</text><line stroke="black" stroke-width="1" x1="158.3125" x2="158.3125" y1="0" y2="139.6875"/><line stroke="black" stroke-width="1" x1="158.3125" x2="164.2219733267864" y1="139.6875" y2="129.45229219800595"/><line stroke="black" stroke-width="1" x1="158.3125" x2="152.4030266732136" y1="139.6875" y2="129.45229219800595"/><line stroke="black" stroke-width="1" x1="158.3125" x2="158.3125" y1="139.6875" y2="0"/><line stroke="black" stroke-width="1" x1="158.3125" x2="152.4030266732136" y1="0" y2="10.235207801994056"/><line stroke="black" stroke-width="1" x1="158.3125" x2="164.2219733267864" y1="0" y2="10.235207801994056"/><text x="176.9375" y="18.625">height &gt;= 0.150&#181;m, height &lt;= 0.150&#181;m</text></svg>