<svg xmlns="http://www.w3.org/2000/svg" xmlns:ev="http://www.w3.org/2001/xml-events" xmlns:xlink="http://www.w3.org/1999/xlink" baseProfile="full" height="100%" version="1.1" width="100%" viewBox="0 0 436.75 194.25"><defs><style type="text/css">
    .background {fill:white;}
    .mcon {fill:rgb(204,202,204);stroke-width:1;stroke:black;}
    .met1 {fill:rgb(190,144,217);}
    .huge_met1 {fill:rgb(190,144,217);}
    .via {fill:rgb(59,0,246);}
    
</style></defs><rect class="via" height="138.75" width="138.75" x="0" y="0"/><line stroke="black" stroke-width="1" x1="0" x2="138.75" y1="157.25" y2="157.25"/><line stroke="black" stroke-width="1" x1="138.75" x2="128.54919635518849" y1="157.25" y2="151.36039050530513"/><line stroke="black" stroke-width="1" x1="138.75" x2="128.54919635518849" y1="157.25" y2="163.13960949469487"/><line stroke="black" stroke-width="1" x1="138.75" x2="0" y1="157.25" y2="157.25"/><line stroke="black" stroke-width="1" x1="0" x2="10.20080364481152" y1="157.25" y2="163.13960949469487"/><line stroke="black" stroke-width="1" x1="0" x2="10.20080364481152" y1="157.25" y2="151.36039050530513"/><text x="0" y="175.75">width &gt;= 0.150&#181;m, width &lt;= 0.150&#181;m</text><text x="0" y="194.25">(via.1a)</text><line stroke="black" stroke-width="1" x1="157.25" x2="157.25" y1="0" y2="138.75"/><line stroke="black" stroke-width="1" x1="157.25" x2="163.13960949469487" y1="138.75" y2="128.54919635518849"/><line stroke="black" stroke-width="1" x1="157.25" x2="151.36039050530513" y1="138.75" y2="128.54919635518849"/><line stroke="black" stroke-width="1" x1="157.25" x2="157.25" y1="138.75" y2="0"/><line stroke="black" stroke-width="1" x1="157.25" x2="151.36039050530513" y1="0" y2="10.20080364481152"/><line stroke="black" stroke-width="1" x1="157.25" x2="163.13960949469487" y1="0" y2="10.20080364481152"/><text x="175.75" y="18.5">height &gt;= 0.150&#181;m, height &lt;= 0.150&#181;m</text></svg>