<svg xmlns="http://www.w3.org/2000/svg" xmlns:ev="http://www.w3.org/2001/xml-events" xmlns:xlink="http://www.w3.org/1999/xlink" baseProfile="full" height="100%" version="1.1" width="100%" viewBox="0 0 386.7 400.8"><defs><style type="text/css">
    .background {fill:white;}
    .default {fill:grey;}
    .diff {fill:rgb(196,157,113);}
    .tap {fill:rgb(121,196,113);}
    .poly {fill:rgb(212,90,92);}
    .mcon {fill:rgb(204,202,204);stroke-width:1;stroke:black;}
    .met1 {fill:rgb(190,144,217);}
    .huge_met1 {fill:rgb(160,114,187);}
    .via {fill:rgb(59,0,246);}
    .checkmark {fill:rgb(0,192,0);font-size:74px;}
    .no {fill:rgb(179,0,0);font-size:74px;}
    
</style></defs><rect class="met1" height="310.8" width="244.2" x="0" y="0"/><rect class="via" height="122.1" width="122.1" x="61.05" y="94.35000000000001"/><line stroke="black" stroke-width="1" style="stroke-dasharray:8,8;" x1="0" x2="0" y1="216.45" y2="310.8"/><line stroke="black" stroke-width="1" style="stroke-dasharray:8,8;" x1="61.05" x2="61.05" y1="216.45" y2="310.8"/><line stroke="black" stroke-width="1" x1="0" x2="61.05" y1="318.8" y2="318.8"/><line stroke="black" stroke-width="1" x1="61.05" x2="54.28355235001408" y1="318.8" y2="314.8932750288765"/><line stroke="black" stroke-width="1" x1="61.05" x2="54.28355235001408" y1="318.8" y2="322.70672497112355"/><line stroke="black" stroke-width="1" x1="61.05" x2="0" y1="318.8" y2="318.8"/><line stroke="black" stroke-width="1" x1="0" x2="6.766447649985921" y1="318.8" y2="322.70672497112355"/><line stroke="black" stroke-width="1" x1="0" x2="6.766447649985921" y1="318.8" y2="314.8932750288765"/><text x="0" y="337.3">space &gt;= 0.055&#181;m</text><text x="0" y="355.8">(via.4a)</text><line stroke="black" stroke-width="1" style="stroke-dasharray:8,8;" x1="183.14999999999998" x2="244.2" y1="0" y2="0"/><line stroke="black" stroke-width="1" style="stroke-dasharray:8,8;" x1="183.14999999999998" x2="244.2" y1="94.35000000000001" y2="94.35000000000001"/><line stroke="black" stroke-width="1" x1="252.2" x2="252.2" y1="0" y2="94.35000000000001"/><line stroke="black" stroke-width="1" x1="252.2" x2="257.05669640805354" y1="94.35000000000001" y2="85.93820182125131"/><line stroke="black" stroke-width="1" x1="252.2" x2="247.34330359194647" y1="94.35000000000001" y2="85.93820182125131"/><line stroke="black" stroke-width="1" x1="252.2" x2="252.2" y1="94.35000000000001" y2="0"/><line stroke="black" stroke-width="1" x1="252.2" x2="247.34330359194647" y1="0" y2="8.411798178748704"/><line stroke="black" stroke-width="1" x1="252.2" x2="257.05669640805354" y1="0" y2="8.411798178748704"/><text x="270.7" y="18.5">space &gt;= 0.085&#181;m</text><text x="270.7" y="37.0">(via.5a)</text><rect class="met1" height="12.95" style="fill-opacity:1.0;" width="12.95" x="0" y="361.35"/><text x="20.95" y="374.3">met1</text><rect class="via" height="12.95" style="fill-opacity:1.0;" width="12.95" x="0" y="379.85"/><text x="20.95" y="392.8">via</text></svg>