<svg xmlns="http://www.w3.org/2000/svg" xmlns:ev="http://www.w3.org/2001/xml-events" xmlns:xlink="http://www.w3.org/1999/xlink" baseProfile="full" height="100%" version="1.1" width="100%" viewBox="0 0 464.5 248.5"><defs><style type="text/css">
    .background {fill:white;}
    .default {fill:grey;}
    .diff {fill:rgb(196,157,113);}
    .tap {fill:rgb(121,196,113);}
    .poly {fill:rgb(212,90,92);}
    .mcon {fill:rgb(204,202,204);stroke-width:1;stroke:black;}
    .met1 {fill:rgb(190,144,217);}
    .huge_met1 {fill:rgb(160,114,187);}
    .via {fill:rgb(59,0,246);}
    .checkmark {fill:rgb(0,192,0);font-size:74px;}
    .no {fill:rgb(179,0,0);font-size:74px;}
    
</style></defs><rect class="via" height="166.5" width="166.5" x="0" y="0"/><line stroke="black" stroke-width="1" x1="0" x2="166.5" y1="185.0" y2="185.0"/><line stroke="black" stroke-width="1" x1="166.5" x2="155.32557947811162" y1="185.0" y2="178.54825604971802"/><line stroke="black" stroke-width="1" x1="166.5" x2="155.32557947811162" y1="185.0" y2="191.45174395028198"/><line stroke="black" stroke-width="1" x1="166.5" x2="0" y1="185.0" y2="185.0"/><line stroke="black" stroke-width="1" x1="0" x2="11.174420521888372" y1="185.0" y2="191.45174395028198"/><line stroke="black" stroke-width="1" x1="0" x2="11.174420521888372" y1="185.0" y2="178.54825604971802"/><text x="0" y="203.5">width &gt;= 0.150&#181;m, width &lt;= 0.150&#181;m</text><text x="0" y="222.0">(via.1a). See exemptions</text><line stroke="black" stroke-width="1" x1="185.0" x2="185.0" y1="0" y2="166.5"/><line stroke="black" stroke-width="1" x1="185.0" x2="191.45174395028198" y1="166.5" y2="155.32557947811162"/><line stroke="black" stroke-width="1" x1="185.0" x2="178.54825604971802" y1="166.5" y2="155.32557947811162"/><line stroke="black" stroke-width="1" x1="185.0" x2="185.0" y1="166.5" y2="0"/><line stroke="black" stroke-width="1" x1="185.0" x2="178.54825604971802" y1="0" y2="11.174420521888372"/><line stroke="black" stroke-width="1" x1="185.0" x2="191.45174395028198" y1="0" y2="11.174420521888372"/><text x="203.5" y="18.5">height &gt;= 0.150&#181;m, height &lt;= 0.150&#181;m</text><rect class="via" height="12.95" style="fill-opacity:1.0;" width="12.95" x="0" y="227.55"/><text x="20.95" y="240.5">via</text></svg>