<svg xmlns="http://www.w3.org/2000/svg" xmlns:ev="http://www.w3.org/2001/xml-events" xmlns:xlink="http://www.w3.org/1999/xlink" baseProfile="full" height="100%" version="1.1" width="100%" viewBox="0 0 563.0 596.0"><defs><style type="text/css">
    .background {fill:white;}
    .mcon {fill:rgb(204,202,204);stroke-width:1;stroke:black;}
    .met1 {fill:rgb(190,144,217.25);}
    .huge_met1 {fill:rgb(190,144,217.25);}
    .via {fill:rgb(59,0,246);}
    
</style></defs><rect class="met1" height="521.5" width="409.75" x="0" y="0"/><rect class="via" height="204.875" width="204.875" x="102.4375" y="158.3125"/><line stroke="black" x1="0" x2="0" y1="521.5" y2="558.75"/><line stroke="black" x1="102.4375" x2="102.4375" y1="521.5" y2="558.75"/><line stroke="black" stroke-width="1" x1="0" x2="102.4375" y1="540.125" y2="540.125"/><line stroke="black" stroke-width="1" x1="102.4375" x2="93.67259168616123" y1="540.125" y2="535.0644293800007"/><line stroke="black" stroke-width="1" x1="102.4375" x2="93.67259168616123" y1="540.125" y2="545.1855706199993"/><line stroke="black" stroke-width="1" x1="102.4375" x2="0" y1="540.125" y2="540.125"/><line stroke="black" stroke-width="1" x1="0" x2="8.76490831383877" y1="540.125" y2="545.1855706199993"/><line stroke="black" stroke-width="1" x1="0" x2="8.76490831383877" y1="540.125" y2="535.0644293800007"/><text x="0" y="577.375">space &gt;= 0.055&#181;m</text><text x="0" y="596.0">(via.4a)</text><line stroke="black" x1="409.75" x2="447.0" y1="0" y2="0"/><line stroke="black" x1="409.75" x2="447.0" y1="158.3125" y2="158.3125"/><line stroke="black" stroke-width="1" x1="428.375" x2="428.375" y1="0" y2="158.3125"/><line stroke="black" stroke-width="1" x1="428.375" x2="434.6661147660808" y1="158.3125" y2="147.41628922514803"/><line stroke="black" stroke-width="1" x1="428.375" x2="422.0838852339192" y1="158.3125" y2="147.41628922514803"/><line stroke="black" stroke-width="1" x1="428.375" x2="428.375" y1="158.3125" y2="0"/><line stroke="black" stroke-width="1" x1="428.375" x2="422.0838852339192" y1="0" y2="10.896210774851962"/><line stroke="black" stroke-width="1" x1="428.375" x2="434.6661147660808" y1="0" y2="10.896210774851962"/><text x="447.0" y="23.625">space &gt;= 0.085&#181;m</text><text x="447.0" y="42.25">(via.5a)</text></svg>